<svg xmlns="http://www.w3.org/2000/svg" width="15" height="15" viewBox="0 0 15 15">
    <defs>
        <style>
            .cls-1{fill:#fff}
        </style>
    </defs>
    <g id="icon_close_w" transform="translate(-142.079 -265.891)">
        <g id="그룹_9370" transform="translate(142.079 265.891)">
            <path id="패스_33112" d="M142.85 280.891a.772.772 0 0 1-.545-1.318l13.457-13.457a.772.772 0 1 1 1.091 1.091L143.4 280.665a.774.774 0 0 1-.546.226zm0 0" class="cls-1" transform="translate(-142.079 -265.891)"/>
            <path id="패스_33113" d="M156.307 280.891a.766.766 0 0 1-.545-.226L142.3 267.208a.772.772 0 1 1 1.091-1.091l13.456 13.457a.772.772 0 0 1-.545 1.318zm0 0" class="cls-1" transform="translate(-142.079 -265.891)"/>
        </g>
    </g>
</svg>
