<svg xmlns="http://www.w3.org/2000/svg" width="15" height="16.154" viewBox="0 0 15 16.154">
    <defs>
        <style>
            .cls-1{fill:#111}
        </style>
    </defs>
    <g id="icon_trash" transform="translate(-34.133 -17.067)">
        <path id="패스_33155" d="M34.71 20.529h.627l1.1 12.168a.577.577 0 0 0 .577.524h9.231a.577.577 0 0 0 .577-.524l1.1-12.168h.627a.577.577 0 1 0 0-1.154h-4.031V18.8a1.731 1.731 0 0 0-1.731-1.731h-2.308a1.731 1.731 0 0 0-1.731 1.731v.577H34.71a.577.577 0 1 0 0 1.154zM39.9 18.8a.577.577 0 0 1 .577-.577h2.308a.577.577 0 0 1 .577.577v.577H39.9zm-.577 1.731h7.445l-1.046 11.536h-8.178L36.5 20.529z" class="cls-1"/>
        <path id="패스_33156" d="M154.712 162.789h.042a.577.577 0 0 0 .536-.616l-.577-8.077a.578.578 0 1 0-1.154.082l.577 8.077a.577.577 0 0 0 .576.534z" class="cls-1" transform="translate(-115.386 -131.875)"/>
        <path id="패스_33157" d="M239.51 162.831a.577.577 0 0 0 .577-.577v-8.077a.577.577 0 0 0-1.154 0v8.077a.577.577 0 0 0 .577.577z" class="cls-1" transform="translate(-197.877 -131.918)"/>
        <path id="패스_33158" d="M307.691 162.789h.041a.577.577 0 0 0 .577-.536l.577-8.077a.578.578 0 1 0-1.154-.082l-.577 8.077a.577.577 0 0 0 .533.618z" class="cls-1" transform="translate(-263.791 -131.875)"/>
    </g>
</svg>
