<svg xmlns="http://www.w3.org/2000/svg" width="30" height="30" viewBox="0 0 30 30">
    <defs>
        <style>
            .cls-2{fill:#fff}
        </style>
    </defs>
    <g id="icon_cart" transform="translate(-10438 -1379)">
        <circle id="타원_466" cx="15" cy="15" r="15" fill="#5815a5" opacity="0.7" transform="translate(10438 1379)"/>
        <g id="그룹_9358" transform="translate(10443.625 1385.775)">
            <path id="패스_33109" d="M865.261 634.709a2.317 2.317 0 1 0 2.317 2.317 2.32 2.32 0 0 0-2.317-2.317zm0 3.516a1.2 1.2 0 1 1 1.2-1.2 1.2 1.2 0 0 1-1.2 1.2z" class="cls-2" transform="translate(-857.495 -621.394)"/>
            <path id="패스_33110" d="M1036.612 634.709a2.317 2.317 0 1 0 2.317 2.317 2.32 2.32 0 0 0-2.317-2.317zm0 3.516a1.2 1.2 0 1 1 1.2-1.2 1.2 1.2 0 0 1-1.2 1.2z" class="cls-2" transform="translate(-1022.189 -621.394)"/>
            <path id="패스_33111" d="M740.891 295.842h-13.353l-.716-2.842a.556.556 0 0 0-.448-.441l-3.014-.553a.564.564 0 0 0-.1-.009.559.559 0 0 0-.548.459.56.56 0 0 0 .449.651l2.64.484 2.237 10.529a.561.561 0 0 0 .549.451h10.549a.557.557 0 0 0 .545-.434l1.758-7.61a.559.559 0 0 0-.545-.685zm-2.2 7.61h-9.645l-1.284-6.492h12.428z" class="cls-2" transform="translate(-722.7 -291.998)"/>
        </g>
    </g>
</svg>
