<svg xmlns="http://www.w3.org/2000/svg" width="14" height="9" viewBox="0 0 14 9">
    <g>
        <path d="M0 0H1.538V9H0z" transform="translate(-301 -218.276) translate(301 218.276)"/>
        <path d="M0 0H1.538V9H0z" transform="translate(-301 -218.276) translate(304.918 218.276)"/>
        <path d="M0 0H1.538V9H0z" transform="translate(-301 -218.276) translate(307.278 218.276)"/>
        <path d="M0 0H2.284V9H0z" transform="translate(-301 -218.276) translate(312.716 218.276)"/>
        <path d="M0 0H0.746V9H0z" transform="translate(-301 -218.276) translate(303.358 218.276)"/>
        <path d="M0 0H0.745V9H0z" transform="translate(-301 -218.276) translate(309.585 218.276)"/>
        <path d="M0 0H0.746V9H0z" transform="translate(-301 -218.276) translate(311.141 218.276)"/>
    </g>
</svg>
