<svg xmlns="http://www.w3.org/2000/svg" width="20" height="20.003" viewBox="0 0 20 20.003">
    <g opacity="0.5">
        <path d="M-268.333 129.429v17.145A1.429 1.429 0 0 0-266.9 148a1.429 1.429 0 0 0 1.429-1.429v-17.142A1.429 1.429 0 0 0-266.9 128a1.429 1.429 0 0 0-1.433 1.429z" transform="translate(-3.126 -3.125) translate(280.029 -124.875)"/>
        <path d="M-394.866 258.858h17.143a1.429 1.429 0 0 0 1.429-1.429 1.429 1.429 0 0 0-1.43-1.429h-17.143a1.429 1.429 0 0 0-1.429 1.429 1.429 1.429 0 0 0 1.43 1.429z" transform="translate(-3.126 -3.125) translate(399.421 -244.302)"/>
    </g>
</svg>
