<svg xmlns="http://www.w3.org/2000/svg" width="120" height="60" viewBox="0 0 120 60">
    <defs>
        <style>
            .cls-1{fill:#fff}
        </style>
    </defs>
    <g id="login_logo" transform="translate(-96 -94) translate(96 94)">
        <g id="그룹_9216">
            <g id="그룹_9214">
                <path id="패스_32898" d="M288.194 149.767a.652.652 0 0 0-.825.409 7.985 7.985 0 0 1-2.52 4 7.528 7.528 0 0 0 .028-1.692.652.652 0 0 0-1.229-.223 4.453 4.453 0 0 1-2.463 2.184 4.269 4.269 0 0 0 .4-2.387.652.652 0 0 0-1.285.215 3.026 3.026 0 0 1-1.114 2.654.652.652 0 0 0 .419 1.151 6.416 6.416 0 0 0 3.818-1.45 1.833 1.833 0 0 1-.182.4.651.651 0 0 0 .623.993c.124-.014 3.042-.387 4.743-5.43a.652.652 0 0 0-.413-.824z" class="cls-1" transform="translate(-263.149 -138.923)"/>
                <path id="패스_32899" d="M290.624 183.056a1.894 1.894 0 1 0-1.191 3.37 1.952 1.952 0 0 0 .208-.011 1.894 1.894 0 0 0 .982-3.358z" class="cls-1" transform="translate(-269.068 -161.585)"/>
                <path id="패스_32900" d="M324.284 165.585a1.894 1.894 0 1 0-1.884 2.1 1.843 1.843 0 0 0 .206-.011 1.9 1.9 0 0 0 1.678-2.089z" class="cls-1" transform="translate(-291.771 -148.677)"/>
                <path id="패스_32901" d="M312.339 181.651a.654.654 0 0 0-.651.03l-3.309 2.121a.651.651 0 0 0 .052 1.127l3.491 1.805a.652.652 0 0 0 .95-.609l-.182-3.926a.652.652 0 0 0-.351-.548z" class="cls-1" transform="translate(-283.211 -160.856)"/>
                <path id="패스_32902" d="M267.373 115a1.3 1.3 0 0 0-1.3 1.3v7.454a18.241 18.241 0 0 0-11.748-3.611c-.157 0-15.77.291-16.4 16.372a15.877 15.877 0 0 0 4.436 11.39 5.653 5.653 0 0 1-3.261-1.3l-1.646-2.344a1.3 1.3 0 0 0-2.21.125l-.961 1.761-2.586-.888a1.3 1.3 0 0 0-1.708 1.453l.6 3.484-1.7.886a1.3 1.3 0 0 0-.485 1.873c.4.611 10.113 14.847 37.626 14.847h.039v5.208a1.3 1.3 0 1 0 2.607 0v-56.703a1.3 1.3 0 0 0-1.303-1.307zM231.5 152.665l1.134-.592a1.3 1.3 0 0 0 .681-1.375l-.386-2.253 1.547.531a1.305 1.305 0 0 0 1.567-.608l.483-.885.545.777a1.325 1.325 0 0 0 .236.255 7.748 7.748 0 0 0 8.574 1.252 1.3 1.3 0 0 0 .108-2.214 13.006 13.006 0 0 1-5.462-10.9c.529-13.6 13.27-13.892 13.834-13.9a15.607 15.607 0 0 1 11.707 4.441v38c-21.521.018-31.653-9.243-34.568-12.529z" class="cls-1" transform="translate(-228.189 -115.004)"/>
            </g>
            <g id="그룹_9215" transform="translate(45.898 2.143)">
                <path id="패스_32903" d="M398.97 136.776c-.964.078-4.639.1-8.784.1 0 1.277 0 2.606-.026 3.519a33.94 33.94 0 0 1-3.988 0c-.026-.782-.052-2.164-.052-3.519-4.249-.026-8.237-.052-9.566-.1a17 17 0 0 1 0-3.258c5.421-.1 19.965-.052 22.415 0a17 17 0 0 1 .001 3.258zm-.912 5.916a18.328 18.328 0 0 1 0 3.388c-2.085.13-17.7.13-20.069 0-.13-1.928-.078-6.046 0-7.585a34.186 34.186 0 0 1 3.988.026c.052 1.3.052 3.023 0 4.17 5.76-.025 14.123-.051 16.081.001zm-19.808-10.92a86.457 86.457 0 0 1 0-9.018c1.616-.1 17.567-.078 19.027 0a85.6 85.6 0 0 1 0 9.018c-1.747.104-16.994.128-19.027 0zm15.273-3.128v-2.736c-1.46-.026-9.8-.052-11.52 0v2.736c1.197.056 10.425.056 11.52 0z" class="cls-1" transform="translate(-376.216 -122.437)"/>
                <path id="패스_32904" d="M480.2 139.354c-.99.078-4.874.1-9.2.1.026 2.189.052 6.464 0 7.689-.86.052-2.945.052-3.988 0-.052-1.042-.078-5.421-.026-7.689-4.119-.026-7.9-.052-9.2-.1a18.386 18.386 0 0 1 0-3.389c5.421-.1 19.965-.052 22.415 0a18.36 18.36 0 0 1-.001 3.389zm-20.982-11.625a19.538 19.538 0 0 1 0-3.493c2.085-.078 16.681-.13 19.053 0 .13 2.189.13 8.132 0 9.67a25.521 25.521 0 0 1-3.988 0c-.052-1.46-.052-4.9 0-6.177-5.765 0-13.114.078-15.07 0z" class="cls-1" transform="translate(-432.158 -123.451)"/>
                <path id="패스_32905" d="M553.989 133.231c0 8.6-2.085 11.1-7.142 11.1s-7.167-2.5-7.167-11.1 2.111-11.1 7.167-11.1 7.142 2.498 7.142 11.1zm-4.014 0c0-6.047-.678-7.455-3.128-7.455s-3.154 1.408-3.154 7.455.7 7.454 3.154 7.454 3.128-1.408 3.128-7.454zm12.667 2.606a21.907 21.907 0 0 1 0 3.7c-.443.052-1.3.078-2.424.078l-.078 5.839a28 28 0 0 1-3.91 0c-.1-3.024-.078-20.434 0-23.458a17.8 17.8 0 0 1 3.91 0c.026 1.043.052 2.711.052 4.692 1.017 0 1.877.026 2.45.052a21.9 21.9 0 0 1 0 3.7c-.443.052-1.3.078-2.424.078v5.265c1.017.002 1.851.028 2.424.054z" class="cls-1" transform="translate(-488.619 -121.889)"/>
                <path id="패스_32906" d="M398.133 234.858c-2.241.157-19.339.1-22.415 0a16.662 16.662 0 0 1 0-3.232c2.111-.052 5.578-.052 9.174-.052v-1.459c-3.414 0-6.49-.026-7.48-.078a65.043 65.043 0 0 1 0-6.776 33.777 33.777 0 0 1 3.987 0 30.189 30.189 0 0 1 0 3.44c2.659-.1 13.084-.078 15.039 0a17.824 17.824 0 0 1 0 3.336c-.886.052-3.988.078-7.481.078 0 .469.026.964 0 1.459 4.274 0 8.028.026 9.174.052a16.726 16.726 0 0 1 .002 3.232zm-.912 11.729c-1.694.13-16.733.157-20.069 0a55.436 55.436 0 0 1 0-6.62h15.534v-.99H377.2a13.328 13.328 0 0 1 0-2.893c7.584-.078 16.211-.078 19.418 0a56.645 56.645 0 0 1 0 6.646h-15.531v.99h16.134a17.541 17.541 0 0 1 0 2.867z" class="cls-1" transform="translate(-375.64 -191.665)"/>
                <path id="패스_32907" d="M471.389 253.571c2.424-.078 11.572-.078 13.944 0a24.542 24.542 0 0 1 0 3.91c-2.45.078-11.6.078-13.944 0a32.358 32.358 0 0 1 0-3.91z" class="cls-1" transform="translate(-441.544 -212.542)"/>
                <path id="패스_32908" d="M549.114 233.089c2.085 2.971 4.561 6.568 5.995 8.757a6.961 6.961 0 0 1-2.945 2.189c-1.668-2.268-3.363-4.8-5.083-7.481-1.72 3.154-3.571 6.385-4.587 8a9.572 9.572 0 0 1-3.232-1.877c1.3-2.32 3.389-5.916 5.656-9.722-.026-2.111 0-4.509.026-6.23-2.268 0-4.249 0-5-.052a19.242 19.242 0 0 1 0-3.467c2.111-.052 9.461-.1 14.127 0a25.66 25.66 0 0 1 0 3.467c-.964.026-2.867.026-4.978.052.021 1.803.046 4.275.021 6.364zm13.24 1.746a22.727 22.727 0 0 1-2.32.079c0 4.847-.026 9.539-.078 11.025a28 28 0 0 1-3.91 0c-.1-3.024-.078-20.434 0-23.458a17.8 17.8 0 0 1 3.91 0c.052 1.381.078 4.8.078 8.6.964 0 1.746.026 2.32.052a21.874 21.874 0 0 1 0 3.702z" class="cls-1" transform="translate(-488.33 -191.095)"/>
            </g>
        </g>
        <path id="사각형_3503" fill="none" d="M0 0H120V60H0z"/>
    </g>
</svg>
