<svg xmlns="http://www.w3.org/2000/svg" width="40" height="31" viewBox="0 0 40 31">
    <defs>
        <style>
            .cls-2{fill:#011111}
        </style>
    </defs>
    <g id="icon_imageadd" transform="translate(-48.964 -186.175)" style="opacity:.3">
        <path id="패스_32886" data-name="패스 32886" class="cls-2" d="M88.964 214.286v-25.222a2.913 2.913 0 0 0-2.93-2.889h-34.14a2.912 2.912 0 0 0-2.93 2.889v25.222a2.912 2.912 0 0 0 2.93 2.889h34.14a2.913 2.913 0 0 0 2.93-2.889zm-37.692 0v-25.222a.625.625 0 0 1 .622-.613h34.14a.625.625 0 0 1 .622.613v25.222a.626.626 0 0 1-.622.613h-34.14a.626.626 0 0 1-.622-.613z"/>
        <path id="패스_32887" data-name="패스 32887" class="cls-2" d="M78.038 208.944a1.16 1.16 0 0 0-.813-.363 1.147 1.147 0 0 0-.833.317l-6.926 6.576-2.373-2.223a1.166 1.166 0 0 0-1.577-.012l-5.558 5.054a1.128 1.128 0 0 0-.067 1.608 1.166 1.166 0 0 0 1.631.066l4.765-4.333 2.39 2.239a1.165 1.165 0 0 0 1.595-.005l6.875-6.526 8.061 8.562a1.165 1.165 0 0 0 1.63.06 1.127 1.127 0 0 0 .061-1.609z" transform="translate(-4.256 -9.16)"/>
        <path id="패스_32888" data-name="패스 32888" class="cls-2" d="M65.42 207.59a3.419 3.419 0 1 0-3.467-3.419 3.448 3.448 0 0 0 3.467 3.419zm0-4.562a1.143 1.143 0 1 1-1.159 1.143 1.153 1.153 0 0 1 1.159-1.143z" transform="translate(-5.204 -5.96)"/>
    </g>
</svg>
