<svg xmlns="http://www.w3.org/2000/svg" width="92" height="92" viewBox="0 0 92 92">
    <g transform="translate(-134 -634)">
        <circle cx="46" cy="46" r="46" fill="#fed400" transform="translate(134 634)"/>
        <g fill="#fed400" stroke="#111" transform="translate(140 640)">
            <circle cx="40" cy="40" r="40" stroke="none"/>
            <circle cx="40" cy="40" r="39.5" fill="none"/>
        </g>
        <g transform="translate(115.401 573.6)">
            <path d="M79.338 93.806h-6v-.072a3.258 3.258 0 0 0-.975-2.355 3.3 3.3 0 0 0-2.348-.978H59.182a3.322 3.322 0 0 0-2.384.978 3.32 3.32 0 0 0-.975 2.355v.072h-5.96a4.08 4.08 0 0 0-3 1.268 4.314 4.314 0 0 0-1.263 3.007v18.043a4.1 4.1 0 0 0 1.264 3.007 4.288 4.288 0 0 0 3 1.268h29.474a4.08 4.08 0 0 0 3-1.268 4.314 4.314 0 0 0 1.264-3.007V98.081a4.324 4.324 0 0 0-4.262-4.275zm2.348 22.319a2.347 2.347 0 0 1-2.348 2.355H49.862a2.347 2.347 0 0 1-2.348-2.355V98.081a2.347 2.347 0 0 1 2.348-2.355h6.971a.973.973 0 0 0 .975-.978V93.7a1.425 1.425 0 0 1 .4-1.014 1.416 1.416 0 0 1 1.011-.4h10.8a1.362 1.362 0 0 1 1.408 1.414v1.051a.973.973 0 0 0 .975.978h6.971a2.347 2.347 0 0 1 2.348 2.355v18.043z" transform="translate(0 0)"/>
            <path d="M166.486 176.4a8.893 8.893 0 1 0 6.285 2.609 8.888 8.888 0 0 0-6.285-2.609zm4.913 13.877a6.962 6.962 0 0 1-9.825 0 6.937 6.937 0 0 1-2.023-4.928 7.092 7.092 0 0 1 2.023-4.928 6.9 6.9 0 0 1 4.913-2.029 7.048 7.048 0 0 1 4.913 2.029 6.937 6.937 0 0 1 2.023 4.928 6.79 6.79 0 0 1-2.023 4.928z" transform="translate(-101.886 -78.21)"/>
            <ellipse cx="1.77" cy="1.775" rx="1.77" ry="1.775" transform="translate(75.689 98.154)"/>
        </g>
    </g>
</svg>
