<svg xmlns="http://www.w3.org/2000/svg" width="30" height="30">
    <path data-name="패스 33217" d="M706.3 1307.544h-23.149a1.281 1.281 0 0 0-1.286 1.286v23.147a1.285 1.285 0 0 0 1.286 1.286H706.3a1.29 1.29 0 0 0 1.286-1.286v-23.147a1.285 1.285 0 0 0-1.286-1.286zm-1.286 2.572v8.37a16.322 16.322 0 0 0-9.391 3.271 22.919 22.919 0 0 0-11.184-2.741v-8.9zm-20.575 11.621c7.687.091 13.139 3.174 15.877 8.954h-15.879zm18.844 8.954a17.748 17.748 0 0 0-5.286-7.314 14.292 14.292 0 0 1 7.016-2.163v9.477z" transform="translate(-679.865 -1305.544)" style="fill:#111"/>
    <path data-name="사각형 8892" style="fill:none" d="M0 0h30v30H0z"/>
</svg>
