<svg xmlns="http://www.w3.org/2000/svg" width="22" height="22" viewBox="0 0 22 22">
    <g>
        <path d="M248.428 107.848h-3.143v-1.572h-1.572v1.572h-9.428v-1.572h-1.572v1.572h-3.143a1.573 1.573 0 0 0-1.57 1.571V126.7a1.574 1.574 0 0 0 1.572 1.571h13.357a.786.786 0 0 0 .556-.23l6.286-6.286a.786.786 0 0 0 .23-.556v-11.78a1.573 1.573 0 0 0-1.572-1.571zm-4.714 17.746v-3.6h3.6zm4.714-5.175h-4.714a1.573 1.573 0 0 0-1.572 1.572v4.709h-12.57v-12.567h18.857v6.286zm0-7.857h-18.856v-3.143h3.143v1.572h1.572v-1.572h9.428v1.572h1.572v-1.572h3.143v3.143zm0 0" transform="translate(-228 -106.276)"/>
    </g>
</svg>
