<svg xmlns="http://www.w3.org/2000/svg" width="12" height="12" viewBox="0 0 12 12">
    <g>
        <path d="M899.448 279.692a4.809 4.809 0 0 1 3.624-1.632 4.9 4.9 0 0 1 2.529.722 5.5 5.5 0 0 1 .983.758l-.854-.028a.493.493 0 0 0-.357.135.5.5 0 0 0-.023.709.493.493 0 0 0 .347.158l1.85.061a.5.5 0 0 0 .5-.124.5.5 0 0 0 .122-.505l-.061-1.859a.5.5 0 1 0-1 .02v.014l.019.564a6.526 6.526 0 0 0-1.02-.763 5.9 5.9 0 0 0-3.042-.864 5.791 5.791 0 0 0-4.364 1.964 6.25 6.25 0 0 0-1.6 4.036.5.5 0 1 0 1 0 5.218 5.218 0 0 1 1.347-3.366z" transform="translate(-897.108 -277.058) translate(0 0)"/>
        <path d="M947.1 512.84a.5.5 0 0 0-.5.5 5.219 5.219 0 0 1-1.343 3.366 4.81 4.81 0 0 1-3.624 1.632 4.9 4.9 0 0 1-2.529-.721 5.5 5.5 0 0 1-.982-.758l.854.028H939a.5.5 0 0 0 .016-1l-1.85-.061a.5.5 0 0 0-.5.124.5.5 0 0 0-.122.505l.061 1.859a.5.5 0 0 0 .154.351.5.5 0 0 0 .7-.016.5.5 0 0 0 .138-.355v-.014l-.019-.564a6.543 6.543 0 0 0 1.02.763 5.9 5.9 0 0 0 3.042.864 5.791 5.791 0 0 0 4.36-1.965 6.251 6.251 0 0 0 1.6-4.036.5.5 0 0 0-.5-.502z" transform="translate(-897.108 -277.058) translate(-38.492 -230.283)"/>
    </g>
</svg>
