<svg xmlns="http://www.w3.org/2000/svg" width="22" height="22" viewBox="0 0 22 22">
    <defs>
        <style>
            .cls-2{fill:#fff}
        </style>
    </defs>
    <g id="icon_Bbox" transform="translate(-159.788 -162.719)">
        <path id="패스_33092" fill="#5815a5" d="M169 3043.833l-10.417 5v11.75l10.417 3.75 10.583-4.333v-11.167z" transform="translate(1.788 -2880.114)"/>
        <path id="패스_33083" d="M446.9 279.655l-.014.006z" class="cls-2" transform="translate(-270.65 -110.237)"/>
        <path id="패스_33084" d="M448.87 278.852l-.017.007z" class="cls-2" transform="translate(-272.504 -109.48)"/>
        <path id="패스_33086" d="M407.943 293.6l-.264.105z" class="cls-2" transform="translate(-233.689 -123.381)"/>
        <path id="패스_33088" d="M181.391 167.6l-10.312-4.812a.688.688 0 0 0-.581 0l-10.313 4.812a.688.688 0 0 0-.393.549v11.762a.688.688 0 0 0 .432.638l10.313 4.125a.687.687 0 0 0 .511 0l10.313-4.125a.688.688 0 0 0 .432-.638v-11.692-.074a.688.688 0 0 0-.402-.545zM170.1 183.016l-8.938-3.575v-10.207l8.938 3.575zm.687-11.412l-8.583-3.433 3.318-1.548 1.8-.839 3.466-1.618 8.583 4.005-3 1.2-.017.007-.1.039-.014.006-1.983.793-.264.105-.012.005zm9.625 7.838l-8.937 3.575v-10.208l8.938-3.575z" class="cls-2" transform="translate(0 0)"/>
        <path id="패스_33089" d="M407.461 295.443l.013-.005-.013.005z" class="cls-2" transform="translate(-233.483 -125.115)"/>
        <path id="패스_33091" d="M447.235 278.969l-.1.039z" class="cls-2" transform="translate(-270.886 -109.59)"/>
    </g>
</svg>
