<svg xmlns="http://www.w3.org/2000/svg" width="61" height="61" viewBox="0 0 61 61">
    <defs>
        <clipPath id="clip-path">
            <circle id="타원_14" cx="15.5" cy="15.5" r="15.5" fill="#fed400"/>
        </clipPath>
        <filter id="타원_13" width="61" height="61" x="0" y="0" filterUnits="userSpaceOnUse">
            <feOffset dx="5" dy="2"/>
            <feGaussianBlur result="blur" stdDeviation="5"/>
            <feFlood flood-opacity=".149"/>
            <feComposite in2="blur" operator="in"/>
            <feComposite in="SourceGraphic"/>
        </filter>
        <style>
            .cls-4{fill:#fff}.cls-5{fill:#070304}
        </style>
    </defs>
    <g id="icon_new_m" transform="translate(-86 -899)">
        <g filter="url(#타원_13)" transform="matrix(1, 0, 0, 1, 86, 899)">
            <circle id="타원_13-2" cx="15.5" cy="15.5" r="15.5" fill="#c52321" transform="translate(10 13)"/>
        </g>
        <g id="마스크_그룹_1" clip-path="url(#clip-path)" transform="translate(96 912)">
            <g id="그룹_779" transform="matrix(0.819, 0.574, -0.574, 0.819, 15.995, 13.122)">
                <path id="패스_83" d="M15.649 2.406S12.839-.929 8.811.254c0 0-5.74.994-4.683 7.45a7.268 7.268 0 0 0 2.064 3.424s-2.82.306-3.424-1.252l-.806.9-1.307-.541.252 1.7-.907.644s3.856 5.944 15.624 5.668z" class="cls-4" transform="translate(0.44 0.403)"/>
                <g id="그룹_778" transform="translate(0 0)">
                    <path id="패스_84" d="M15.185 19.063C4.127 19.063.234 13.355.073 13.11a.438.438 0 0 1 .163-.63l.742-.387-.252-1.469a.438.438 0 0 1 .574-.489l1.114.382.423-.775a.438.438 0 0 1 .36-.228.431.431 0 0 1 .383.186l.672.956a2.3 2.3 0 0 0 1.6.552 6.294 6.294 0 0 1-1.922-4.68C4.179.119 10.4 0 10.46 0a7.228 7.228 0 0 1 5.5 2.154.438.438 0 1 1-.626.614 6.365 6.365 0 0 0-4.86-1.889 5.657 5.657 0 0 0-5.669 5.694 5.334 5.334 0 0 0 2.242 4.474.438.438 0 0 1-.036.745 3.036 3.036 0 0 1-3.362-.5.441.441 0 0 1-.079-.086l-.3-.429-.262.481a.437.437 0 0 1-.527.2l-.766-.258.185 1.059a.438.438 0 0 1-.229.463l-.556.291c1.1 1.274 5.277 5.262 14.38 5.172a.438.438 0 0 1 0 .877z" class="cls-5"/>
                    <path id="패스_85" d="M.263 2.56a.263.263 0 0 1-.169-.46 1.222 1.222 0 0 0 .45-1.071.263.263 0 0 1 .518-.092A1.726 1.726 0 0 1 .9 1.9a1.8 1.8 0 0 0 1-.881.263.263 0 0 1 .5.09 3.027 3.027 0 0 1-.011.683A3.22 3.22 0 0 0 3.4.179a.263.263 0 0 1 .5.168c-.69 2.035-1.868 2.186-1.917 2.191a.263.263 0 0 1-.251-.4.749.749 0 0 0 .068-.163 2.641 2.641 0 0 1-1.537.585z" class="cls-5" transform="translate(6.29 2.201)"/>
                    <g id="그룹_777" transform="translate(7.369 3.98)">
                        <path id="패스_86" d="M1.243.169A.764.764 0 0 0 .285 1.36a.758.758 0 0 0 .477.169.75.75 0 0 0 .084 0 .764.764 0 0 0 .678-.847.759.759 0 0 0-.281-.513z" class="cls-5" transform="translate(0 2.355)"/>
                        <path id="패스_87" d="M1.524.682a.764.764 0 1 0-.76.847.738.738 0 0 0 .083 0 .765.765 0 0 0 .677-.847z" class="cls-5" transform="translate(4.141 0)"/>
                        <path id="패스_88" d="M1.719.029a.264.264 0 0 0-.263.012L.121.9a.263.263 0 0 0 .021.455l1.409.729a.263.263 0 0 0 .383-.246L1.861.251a.263.263 0 0 0-.142-.222z" class="cls-5" transform="translate(2.58 2.222)"/>
                    </g>
                </g>
            </g>
        </g>
        <path id="패스_33082" d="M-31.356-15.913a1.833 1.833 0 0 1-.245.019h-.322q-.171 0-.33-.008t-.26-.016q-.008-.163-.012-.559t0-.9v-2.135-.881q0-.381.012-.528.078-.008.229-.016t.326-.008h.338a2.14 2.14 0 0 1 .264.019v.609q0 .399.008.893v2.923q0 .388-.008.588zm-4.053-2.655q-.4.45-.827.9t-.788.8q-.078-.054-.186-.148t-.221-.206q-.113-.113-.213-.221a1.405 1.405 0 0 1-.155-.194q.411-.443.881-.932t.9-.947v-.73-.3-.217a1.753 1.753 0 0 1 .237-.023q.159-.008.342-.008t.353.008a2.672 2.672 0 0 1 .272.023v1.274l.939.811q.481.415.908.8a1.837 1.837 0 0 1-.136.206q-.089.12-.19.241t-.2.229a1.537 1.537 0 0 1-.171.163q-.388-.3-.854-.706t-.891-.823zm4.185 3.649a4.619 4.619 0 0 1 .023.5 4.842 4.842 0 0 1-.023.509q-.116.008-.4.012l-.668.008-.854.008h-1.89l-.862-.008-.687-.008q-.3 0-.427-.012-.016-.217-.019-.563t0-.71q0-.365.008-.691t.016-.5q.093-.008.245-.012t.318 0h.326q.159 0 .268.012.008.148.008.334v.769q0 .194-.008.349H-31.949q.507-.005.725.003zm7.422-4.736q.016.225.016.524t-.016.524a6.332 6.332 0 0 1-.668.023v.85q0 .392-.012.633a1.833 1.833 0 0 1-.245.019h-.322q-.171 0-.33-.008t-.26-.016q-.008-.171-.012-.477t0-.679v-1.557-.664q0-.295.012-.443.078-.008.229-.016t.326-.008h.338a2.14 2.14 0 0 1 .264.019q.008.217.008.543t.008.706h.373q.173 0 .293.027zM-30.06-17.2a2 2 0 0 1-.175-.159q-.1-.1-.21-.221t-.2-.237a1.619 1.619 0 0 1-.14-.206q.411-.388.877-.807t.908-.831v-.639-.3-.245a1.753 1.753 0 0 1 .237-.023q.159-.008.342-.008t.353.008a2.673 2.673 0 0 1 .272.023v1.182l.943.706q.477.357.9.683a1.373 1.373 0 0 1-.12.217q-.082.124-.175.252t-.182.241a1.408 1.408 0 0 1-.159.175q-.4-.272-.873-.629t-.936-.722q-.419.411-.866.815t-.796.725zm2.694.287a9.36 9.36 0 0 1 1.491.1 2.725 2.725 0 0 1 .92.3 1.1 1.1 0 0 1 .47.489 1.632 1.632 0 0 1 .132.679 1.647 1.647 0 0 1-.148.734 1.114 1.114 0 0 1-.5.485 2.832 2.832 0 0 1-.928.268 10.594 10.594 0 0 1-1.44.082 9.36 9.36 0 0 1-1.491-.1 2.725 2.725 0 0 1-.92-.3 1.1 1.1 0 0 1-.47-.493 1.659 1.659 0 0 1-.132-.683 1.628 1.628 0 0 1 .148-.726 1.114 1.114 0 0 1 .5-.485 2.832 2.832 0 0 1 .928-.268 10.594 10.594 0 0 1 1.44-.084zm0 2.135q.613 0 .978-.035a2.348 2.348 0 0 0 .555-.1.417.417 0 0 0 .245-.179.566.566 0 0 0 .054-.256.5.5 0 0 0-.058-.245.446.446 0 0 0-.248-.175 2.442 2.442 0 0 0-.551-.109 9.581 9.581 0 0 0-.974-.039q-.613 0-.978.035a2.348 2.348 0 0 0-.555.1.425.425 0 0 0-.245.175.542.542 0 0 0-.054.252.518.518 0 0 0 .058.248.437.437 0 0 0 .248.179 2.442 2.442 0 0 0 .551.109 9.581 9.581 0 0 0 .974.038zm10.186-3.509q-.248.008-.726.012l-1.067.008h-2.454l-1.048-.008q-.466 0-.691-.012a5.692 5.692 0 0 1 0-.939q.148-.008.4-.008t.582-.008v-.66q-.3-.008-.528-.008t-.38-.008q-.016-.225-.016-.474t.016-.466q.318-.008.827-.012l1.1-.008H-18.812l.955.008q.415 0 .594.012.023.427 0 .939-.155.008-.388.008t-.528.008v.66q.326.008.582.008t.411.008q.016.225.016.446t-.01.492zm-3.859-.955q.419-.008.862-.008h.862v-.65h-1.724zm4.2 1.343a4.192 4.192 0 0 1 .023.474 4.855 4.855 0 0 1-.023.5q-.109.008-.369.016t-.625.012h-1.739q.008.14 0 .272t0 .264h2.303q.008.256.016.59t.008.672q0 .338-.008.652t-.016.532q-.109.008-.4.016t-.683.012l-.87.008h-1.926l-.87-.008q-.4 0-.679-.012t-.4-.016q-.016-.233-.019-.551t0-.66q0-.342.008-.668t.016-.567h2.315q-.008-.124-.008-.26v-.279h-.889l-.792-.008-.633-.008q-.272 0-.419-.012a4.233 4.233 0 0 1-.023-.477 4.669 4.669 0 0 1 .023-.493q.4-.008 1.005-.012t1.281 0h2.694l1.06.008zm-1.545 2.484h-3.585v.575q.085.008.365.012t.652 0h2.213q.272 0 .357-.008z" class="cls-4" transform="translate(138.569 941.555)"/>
    </g>
</svg>
