<svg xmlns="http://www.w3.org/2000/svg" id="icon_return_03" width="17" height="17" viewBox="0 0 17 17">
    <defs>
        <style>
            .cls-1{fill:#fff}
        </style>
    </defs>
    <path id="패스_33207" d="M135.686 134.415a8.5 8.5 0 1 1 8.5-8.5 8.51 8.51 0 0 1-8.5 8.5zm0-15.511a7.011 7.011 0 1 0 7.012 7.011 7.019 7.019 0 0 0-7.012-7.015z" class="cls-1" transform="translate(-127.186 -117.415)"/>
    <path id="패스_33208" d="M142.9 133.877a.739.739 0 0 1-.526-.218l-1.567-1.567a.364.364 0 0 0-.514 0l-1.567 1.567a.744.744 0 0 1-1.052-1.052l1.566-1.567a.363.363 0 0 0 0-.514l-1.566-1.567a.744.744 0 1 1 1.052-1.052l1.567 1.566a.363.363 0 0 0 .514 0l1.567-1.566a.744.744 0 0 1 1.052 1.052l-1.567 1.567a.364.364 0 0 0 0 .514l1.567 1.567a.744.744 0 0 1-.526 1.27z" class="cls-1" transform="translate(-132.054 -122.283)"/>
</svg>
