<svg xmlns="http://www.w3.org/2000/svg" id="icon_p02" width="17" height="11.049" viewBox="0 0 17 11.049">
    <defs>
        <style>
            .cls-1{fill:#fff}
        </style>
    </defs>
    <path id="패스_33136" d="M10306.423 2738.265l-1.584-3.577a.332.332 0 0 0-.309-.192h-3.363a.347.347 0 0 0-.362.322v6.317a.381.381 0 0 0 .362.362h.737v.091a1.725 1.725 0 1 0 3.45 0v-.091h.78a.331.331 0 0 0 .3-.362v-2.735a.309.309 0 0 0-.011-.135zm-2.795 4.372a1.049 1.049 0 1 1 1.048-1.049 1.051 1.051 0 0 1-1.048 1.049zm2.157-1.861h-.636a1.725 1.725 0 0 0-3.044 0h-.58v-5.63h2.785l1.475 3.326z" class="cls-1" transform="translate(-10289.437 -2732.264)"/>
    <path id="패스_33137" d="M10356.918 2788.684h-2.427a.347.347 0 0 1-.354-.333v-2.482a.373.373 0 0 1 .354-.362h1.587a.348.348 0 0 1 .32.242l.841 2.488a.344.344 0 0 1-.046.306.339.339 0 0 1-.275.141zm-2.131-.65h1.659l-.61-1.8h-1.049z" class="cls-1" transform="translate(-10341.631 -2782.188)"/>
    <path id="패스_33138" d="M9856.164 2859.466h-4.409a1.726 1.726 0 0 0-3.045 0h-.691v-2a.325.325 0 1 0-.65 0v2.362a.356.356 0 0 0 .335.362h.806v.09a1.726 1.726 0 0 0 3.451 0v-.09h4.208a.362.362 0 0 0 0-.722zm-5.932 1.861a1.049 1.049 0 1 1 1.049-1.049 1.05 1.05 0 0 1-1.049 1.049z" class="cls-1" transform="translate(-9845.671 -2850.954)"/>
    <path id="패스_33139" d="M9925.6 2631.5a.328.328 0 0 1-.326-.338v-.664h-9.008a.325.325 0 1 1 0-.65h9.363a.271.271 0 0 1 .295.3v1.015a.326.326 0 0 1-.324.337z" class="cls-1" transform="translate(-9912.766 -2629.851)"/>
    <path id="패스_33141" d="M10005.956 2706.615h-5.076a.362.362 0 0 1 0-.722h4.749v-4.259h-4.749a.362.362 0 0 1 0-.722h5.076a.347.347 0 0 1 .323.362v4.963a.362.362 0 0 1-.323.378z" class="cls-1" transform="translate(-9995.578 -2699.396)"/>
    <path id="패스_33142" d="M9771.117 2715.1h-2.932a.325.325 0 1 1 0-.65h2.932a.325.325 0 1 1 0 .65z" class="cls-1" transform="translate(-9767.847 -2711.777)"/>
    <path id="패스_33143" d="M9773.148 2786.23h-4.963a.362.362 0 0 1 0-.722h4.963a.362.362 0 0 1 0 .722z" class="cls-1" transform="translate(-9767.847 -2781.321)"/>
</svg>
