<svg xmlns="http://www.w3.org/2000/svg" width="22" height="14" viewBox="0 0 22 14">
    <g>
        <path d="M0 0H2.416V14H0z" transform="translate(-301 -218.276) translate(301 218.276)"/>
        <path d="M0 0H2.417V14H0z" transform="translate(-301 -218.276) translate(307.157 218.276)"/>
        <path d="M0 0H2.417V14H0z" transform="translate(-301 -218.276) translate(310.866 218.276)"/>
        <path d="M0 0H3.589V14H0z" transform="translate(-301 -218.276) translate(319.411 218.276)"/>
        <path d="M0 0H1.172V14H0z" transform="translate(-301 -218.276) translate(304.706 218.276)"/>
        <path d="M0 0H1.171V14H0z" transform="translate(-301 -218.276) translate(314.49 218.276)"/>
        <path d="M0 0H1.172V14H0z" transform="translate(-301 -218.276) translate(316.936 218.276)"/>
    </g>
</svg>
