<svg xmlns="http://www.w3.org/2000/svg" width="20" height="20" viewBox="0 0 20 20">
    <path d="M153.5 510.044l-2.4-2.39a2.328 2.328 0 0 0-1.69-.766 2.4 2.4 0 0 0-1.7.756l-1.224 1.221-.149-.075a4.581 4.581 0 0 1-.4-.219 14.719 14.719 0 0 1-3.52-3.2 8.88 8.88 0 0 1-1.055-1.608c.307-.287.6-.581.874-.863.113-.117.231-.233.363-.366a2.269 2.269 0 0 0 0-3.422l-1.199-1.182c-.125-.124-.244-.246-.364-.369l-.04-.04c-.261-.269-.542-.554-.818-.808a2.352 2.352 0 0 0-3.381.007l-1.5 1.491a3.443 3.443 0 0 0-1.029 2.205 7.727 7.727 0 0 0 .578 3.354 18.913 18.913 0 0 0 3.388 5.642 20.854 20.854 0 0 0 6.94 5.417 11.034 11.034 0 0 0 3.972 1.162c.093 0 .183.008.277.008a3.507 3.507 0 0 0 2.71-1.15.589.589 0 0 0 .054-.059 9.3 9.3 0 0 1 .688-.713l.053-.051c.192-.183.388-.374.575-.569a2.311 2.311 0 0 0-.003-3.413zm-13.616-7.312l-.037.036a1.161 1.161 0 0 0-.294 1.287c0 .008.018.048.022.056a9.743 9.743 0 0 0 1.46 2.372 16.328 16.328 0 0 0 3.944 3.58 5.089 5.089 0 0 0 .477.264l.09.045a4.531 4.531 0 0 1 .4.219l.039.022.035.019a1.191 1.191 0 0 0 1.441-.242l1.495-1.49a.712.712 0 0 1 .454-.24.657.657 0 0 1 .431.24l2.41 2.4c.327.326.322.6-.022.959-.163.174-.333.34-.518.516l-.044.043a10.959 10.959 0 0 0-.806.837 1.838 1.838 0 0 1-1.61.593 9.289 9.289 0 0 1-3.3-.99 19.035 19.035 0 0 1-6.348-4.959 17.366 17.366 0 0 1-3.092-5.127 6.048 6.048 0 0 1-.48-2.607 1.713 1.713 0 0 1 .522-1.111l1.482-1.478a.708.708 0 0 1 .463-.229.691.691 0 0 1 .453.243c.229.211.446.431.674.662l1.713 1.717a.552.552 0 0 1 0 .937l-.458.461c-.334.339-.652.66-.997.965z" transform="translate(-134.257 -495.999)"/>
</svg>
