<svg xmlns="http://www.w3.org/2000/svg" width="19" height="18" viewBox="0 0 19 18">
    <path data-name="Path 33234" d="M280.314 268.795a.855.855 0 0 0-.733-.562l-5.5-.472-2.359-5.246a.857.857 0 0 0-1.564 0l-2.359 5.246-5.5.472a.857.857 0 0 0-.529 1.465l4.091 4.034-1.055 5.251a.858.858 0 0 0 1.229.934l4.91-2.5 4.909 2.5a.857.857 0 0 0 1.229-.934l-1.055-5.251 4.091-4.034a.858.858 0 0 0 .195-.903z" transform="translate(-261.505 -262.008)" style="fill:#fed400"/>
    <path data-name="Rectangle 8962" style="fill:none" d="M0 0h19v18H0z"/>
</svg>
