<svg xmlns="http://www.w3.org/2000/svg" id="icon_return_02" width="17" height="17" viewBox="0 0 17 17">
    <defs>
        <style>
            .cls-1{fill:#fff}
        </style>
    </defs>
    <path id="패스_33205" d="M77.307 139.489a.741.741 0 0 1-.527-.218l-2.216-2.216A.744.744 0 0 1 75.617 136l1.433 1.433a.364.364 0 0 0 .514 0l3.648-3.648a.744.744 0 1 1 1.053 1.052l-4.432 4.432a.74.74 0 0 1-.526.22z" class="cls-1" transform="translate(-69.914 -127.742)"/>
    <path id="패스_33206" d="M74.423 139.494a8.5 8.5 0 1 1 8.5-8.5 8.51 8.51 0 0 1-8.5 8.5zm0-15.511a7.011 7.011 0 1 0 7.012 7.011 7.019 7.019 0 0 0-7.012-7.011z" class="cls-1" transform="translate(-65.923 -122.494)"/>
</svg>
