<svg xmlns="http://www.w3.org/2000/svg" width="110" height="110" viewBox="0 0 110 110">
    <defs>
        <clipPath id="clip-path">
            <circle id="타원_14" cx="40" cy="40" r="40" fill="#fed400"/>
        </clipPath>
        <filter id="타원_13" width="110" height="110" x="0" y="0" filterUnits="userSpaceOnUse">
            <feOffset dx="5" dy="5"/>
            <feGaussianBlur result="blur" stdDeviation="5"/>
            <feFlood flood-opacity=".149"/>
            <feComposite in2="blur" operator="in"/>
            <feComposite in="SourceGraphic"/>
        </filter>
        <style>
            .cls-4{fill:#fff}.cls-5{fill:#070304}
        </style>
    </defs>
    <g id="icon_new" transform="translate(-86 -902)">
        <g filter="url(#타원_13)" transform="matrix(1, 0, 0, 1, 86, 902)">
            <circle id="타원_13-2" cx="40" cy="40" r="40" fill="#c52321" transform="translate(10 10)"/>
        </g>
        <g id="마스크_그룹_1" clip-path="url(#clip-path)" transform="translate(96 912)">
            <g id="그룹_779" transform="matrix(0.819, 0.574, -0.574, 0.819, 41.954, 34.418)">
                <path id="패스_83" d="M41.047 6.31S33.677-2.437 23.112.666c0 0-15.056 2.607-12.282 19.541a19.063 19.063 0 0 0 5.415 8.982s-7.4.8-8.981-3.284l-2.113 2.352-3.434-1.41.66 4.452L0 32.994s10.115 15.59 40.98 14.868z" class="cls-4" transform="translate(1.155 1.057)"/>
                <g id="그룹_778" transform="translate(0 0)">
                    <path id="패스_84" d="M39.83 50C10.825 50 .615 35.029.19 34.386a1.149 1.149 0 0 1 .428-1.652l1.946-1.016-.664-3.853a1.149 1.149 0 0 1 1.506-1.282l2.921 1 1.11-2.034a1.149 1.149 0 0 1 .944-.6 1.129 1.129 0 0 1 1.006.487l1.762 2.508a6.041 6.041 0 0 0 4.19 1.447 16.508 16.508 0 0 1-5.035-12.273C10.961.312 27.271.008 27.436.007a18.959 18.959 0 0 1 14.437 5.651 1.15 1.15 0 1 1-1.642 1.61 16.7 16.7 0 0 0-12.759-4.962c-.6.006-14.3.312-14.869 14.935a13.991 13.991 0 0 0 5.882 11.736 1.15 1.15 0 0 1-.1 1.953 7.963 7.963 0 0 1-8.819-1.3 1.157 1.157 0 0 1-.208-.226l-.79-1.125-.688 1.261a1.147 1.147 0 0 1-1.382.537l-1.998-.69.474 2.768a1.148 1.148 0 0 1-.6 1.213l-1.459.762c2.88 3.341 13.84 13.8 37.718 13.567h.011a1.15 1.15 0 0 1 .011 2.3C40.377 50 40.1 50 39.83 50z" class="cls-5"/>
                    <path id="패스_85" d="M.69 6.714A.69.69 0 0 1 .246 5.5a3.2 3.2 0 0 0 1.18-2.814.69.69 0 0 1 1.361-.228 4.528 4.528 0 0 1-.42 2.528 4.714 4.714 0 0 0 2.607-2.313.69.69 0 0 1 1.3.237 7.939 7.939 0 0 1-.028 1.79A8.445 8.445 0 0 0 8.913.469a.69.69 0 0 1 1.308.441c-1.8 5.339-4.89 5.734-5.021 5.748a.69.69 0 0 1-.659-1.051 1.964 1.964 0 0 0 .192-.427A6.926 6.926 0 0 1 .69 6.714z" class="cls-5" transform="translate(16.497 5.773)"/>
                    <g id="그룹_777" transform="translate(19.329 10.44)">
                        <path id="패스_86" d="M3.261.442A2 2 0 0 0 .749 3.567 1.989 1.989 0 0 0 2 4.009 1.967 1.967 0 0 0 2.221 4 2 2 0 0 0 4 1.788 1.991 1.991 0 0 0 3.261.442z" class="cls-5" transform="translate(0 6.177)"/>
                        <path id="패스_87" d="M4 1.789A2 2 0 1 0 2 4.01 1.935 1.935 0 0 0 2.221 4 2.007 2.007 0 0 0 4 1.789z" class="cls-5" transform="translate(10.862 0)"/>
                        <path id="패스_88" d="M4.51.077a.692.692 0 0 0-.689.032L.318 2.354a.69.69 0 0 0 .055 1.194l3.7 1.911a.69.69 0 0 0 1.006-.644L4.882.658A.689.689 0 0 0 4.51.077z" class="cls-5" transform="translate(6.767 5.827)"/>
                    </g>
                </g>
            </g>
        </g>
        <path id="패스_33082" d="M-20.515-8.408a5.284 5.284 0 0 1-.656.048q-.406.01-.864.01t-.885-.019q-.427-.019-.7-.039-.021-.406-.031-1.393t-.01-2.254v-5.32q0-1.248.01-2.2t.031-1.315q.208-.019.614-.039t.875-.019q.469 0 .906.01a6.17 6.17 0 0 1 .708.048q0 .522.01 1.519t.021 2.225q.01 1.228.01 2.563v2.544q0 1.209-.01 2.176t-.029 1.455zm-10.871-6.616Q-32.448-13.9-33.6-12.78t-2.114 1.993q-.208-.135-.5-.368t-.594-.513q-.3-.281-.573-.551a3.558 3.558 0 0 1-.419-.481q1.1-1.1 2.364-2.321t2.426-2.36v-.929-.89q0-.426.01-.754t.01-.542a5.051 5.051 0 0 1 .635-.058q.427-.019.916-.019t.948.019q.458.019.729.058 0 .213.01.561t.01.774v1.838l2.52 2.022q1.291 1.035 2.437 1.983a4.561 4.561 0 0 1-.364.513q-.239.3-.51.6t-.541.571a4.014 4.014 0 0 1-.458.406q-1.041-.754-2.291-1.76t-2.437-2.036zm11.225 9.092a10.7 10.7 0 0 1 .061 1.248 11.216 11.216 0 0 1-.062 1.267q-.312.019-1.062.029t-1.791.019l-2.291.019q-1.25.01-2.53.01t-2.541-.01l-2.312-.019-1.843-.019q-.791-.01-1.145-.029-.042-.542-.052-1.4t-.01-1.77q0-.909.021-1.722t.042-1.238q.25-.019.656-.029t.854-.01q.448 0 .875.01t.718.029q.021.368.021.832V-6.8q0 .484-.021.871 1.729 0 3.665-.01t3.686-.01h3.113q1.365-.002 1.948.017zm19.909-11.8q.042.561.042 1.306t-.042 1.306q-.5.058-1.791.058 0 1.141-.01 2.118t-.031 1.577a5.284 5.284 0 0 1-.656.048q-.406.01-.864.01t-.885-.019q-.427-.019-.7-.039-.021-.426-.031-1.19t-.01-1.693v-3.879q0-.919.01-1.654t.031-1.1q.208-.019.614-.039t.875-.019q.469 0 .906.01a6.17 6.17 0 0 1 .708.048q.021.542.021 1.354t.021 1.76q.541 0 1 .01t.792.026zm-16.785 6.113a5.238 5.238 0 0 1-.469-.4q-.281-.261-.562-.551t-.531-.59a4.029 4.029 0 0 1-.375-.513q1.1-.967 2.353-2.012t2.437-2.07v-1.586q0-.387.01-.745t.01-.609a5.05 5.05 0 0 1 .635-.058q.427-.019.916-.019t.948.019q.458.019.729.058 0 .251.01.609t.01.745v1.586l2.53 1.76q1.281.89 2.426 1.7a3.357 3.357 0 0 1-.323.542q-.219.31-.469.629t-.489.6a3.62 3.62 0 0 1-.427.435q-1.062-.677-2.343-1.567t-2.509-1.8q-1.125 1.025-2.322 2.031t-2.195 1.806zm7.226.716a27 27 0 0 1 4 .242 7.7 7.7 0 0 1 2.468.735 2.848 2.848 0 0 1 1.26 1.219 3.817 3.817 0 0 1 .354 1.693 3.858 3.858 0 0 1-.4 1.828 2.9 2.9 0 0 1-1.33 1.208 8.037 8.037 0 0 1-2.489.667 30.565 30.565 0 0 1-3.863.2 27 27 0 0 1-4-.242 7.7 7.7 0 0 1-2.468-.735 2.832 2.832 0 0 1-1.26-1.228 3.88 3.88 0 0 1-.354-1.7 3.812 3.812 0 0 1 .4-1.809 2.9 2.9 0 0 1 1.333-1.209 8.037 8.037 0 0 1 2.489-.667 30.564 30.564 0 0 1 3.86-.199zm0 5.32q1.645 0 2.624-.087A6.727 6.727 0 0 0-5.7-5.932a1.114 1.114 0 0 0 .656-.445 1.328 1.328 0 0 0 .144-.638 1.164 1.164 0 0 0-.156-.609 1.2 1.2 0 0 0-.666-.435A6.991 6.991 0 0 0-7.2-8.331q-.968-.1-2.614-.1t-2.624.087a6.727 6.727 0 0 0-1.489.261 1.137 1.137 0 0 0-.656.435 1.271 1.271 0 0 0-.146.629 1.217 1.217 0 0 0 .156.619 1.169 1.169 0 0 0 .666.445 6.991 6.991 0 0 0 1.479.271q.972.1 2.617.1zm27.323-8.744q-.666.019-1.947.029l-2.863.019q-1.583.01-3.3.01t-3.28-.01L3.309-14.3q-1.25-.01-1.853-.029a13.18 13.18 0 0 1 0-2.341q.4-.019 1.083-.019t1.561-.018v-1.644q-.791-.019-1.416-.019t-1.02-.019q-.042-.561-.042-1.18t.042-1.161q.854-.019 2.218-.029l2.947-.019q1.583-.01 3.228-.01t3.093.01l2.562.019q1.114.01 1.593.029a21.9 21.9 0 0 1 0 2.341q-.417.019-1.041.019t-1.416.019v1.644q.875.019 1.562.019t1.1.019q.042.561.042 1.112t-.04 1.229zm-10.35-2.38q1.125-.019 2.312-.019h2.312v-1.606H7.162zm11.266 3.347a9.711 9.711 0 0 1 .062 1.18 11.245 11.245 0 0 1-.062 1.238q-.292.019-.989.039t-1.676.029q-.979.01-2.176.01H11.1q.021.348.01.677t-.01.658h4.03q.823 0 1.4.01t.76.01q.021.638.042 1.47t.021 1.673q0 .842-.021 1.625t-.042 1.325q-.292.019-1.062.039t-1.833.029l-2.332.019q-1.27.01-2.582.01t-2.59-.011l-2.332-.019q-1.059-.01-1.823-.029t-1.072-.039Q1.622-4 1.612-4.791T1.6-6.435q0-.851.021-1.664t.042-1.412q.208 0 .781-.01t1.406-.01h4.02q-.021-.31-.021-.648v-.687q-1.229 0-2.384-.01l-2.125-.018-1.7-.019q-.729-.01-1.125-.029a9.806 9.806 0 0 1-.062-1.19 10.816 10.816 0 0 1 .062-1.228q1.083-.019 2.7-.029t3.436-.01h3.707q1.885 0 3.519.01l2.843.019q1.208.009 1.708.009zm-4.144 6.19q-.292 0-1.02-.01t-1.687-.01H7.505q-.968 0-1.739.01t-1.1.01v1.432q.229.019.979.029t1.749.01H9.5q1.114 0 2.1-.01t1.718-.01q.729 0 .958-.019z" class="cls-4" transform="translate(145.684 955.876)"/>
    </g>
</svg>
