<svg xmlns="http://www.w3.org/2000/svg" width="30" height="30">
    <path data-name="패스 33214" d="M902.3 1317.4a1.286 1.286 0 0 1 0 2.572h-1.2a5.256 5.256 0 0 1-3.684-1.5 5.073 5.073 0 0 1-.3-6.989 5.294 5.294 0 0 1 1.8-1.331 7.411 7.411 0 0 1-.09-1.113 6.98 6.98 0 0 1 2.122-5.009 7.29 7.29 0 0 1 8.359-1.286 7.331 7.331 0 0 1 1.633 1.113 5.942 5.942 0 0 1 .739-.425 5.3 5.3 0 0 1 5.941 1 5.1 5.1 0 0 1 1.543 3.446 6.219 6.219 0 0 1 3.151 1.659 6.011 6.011 0 0 1 0 8.654 6.257 6.257 0 0 1-4.385 1.781 1.286 1.286 0 0 1 0-2.572 3.7 3.7 0 0 0 2.6-1.048 3.463 3.463 0 0 0 0-4.977 3.7 3.7 0 0 0-2.6-1.048c-.186 0 .071-.006-.064-.006a1.285 1.285 0 0 1-1.35-1.6 2.305 2.305 0 0 0 .064-.315 2.423 2.423 0 0 0 .013-.328 2.493 2.493 0 0 0-.765-1.807 2.683 2.683 0 0 0-1.9-.765 2.753 2.753 0 0 0-1.164.251 2.612 2.612 0 0 0-.926.726 1.321 1.321 0 0 1-.238.219 1.277 1.277 0 0 1-1.788-.277 4.608 4.608 0 0 0-1.652-1.389 4.787 4.787 0 0 0-5.427.829 4.434 4.434 0 0 0-1.338 3.176 4.348 4.348 0 0 0 .264 1.524 1.173 1.173 0 0 1 .071.257 1.276 1.276 0 0 1-1.074 1.459 2.667 2.667 0 0 0-1.6.894 2.509 2.509 0 0 0 .141 3.459 2.683 2.683 0 0 0 1.9.765zm4.765.907a1.282 1.282 0 0 1-1.813-1.813l3.851-3.858a.418.418 0 0 1 .077-.071l.019-.019.006-.006.019-.013.006-.006.019-.013.013-.006.013-.013.013-.007.013-.006.013-.013.013-.007.02-.013h.006l.019-.013.013-.007.006-.006.019-.013h.006l.026-.013.006-.007.019-.006.007-.006.026-.007v-.006a1.338 1.338 0 0 1 1.029 0v.006l.026.007.006.006.019.006.006.007.019.013h.013l.013.013.013.006.013.007.019.013h.007l.019.013.013.007.013.013.013.006.013.007.013.013.013.006.013.013.013.006.013.013.006.006.019.019h.006c.026.026.052.045.077.071l3.851 3.858a1.282 1.282 0 1 1-1.813 1.813l-1.665-1.659v4.61a1.286 1.286 0 1 1-2.572 0v-4.61z" transform="translate(-894.874 -1296.968)" style="fill:#111"/>
    <path data-name="사각형 8894" style="fill:none" d="M0 0h30v30H0z"/>
</svg>
