<svg xmlns="http://www.w3.org/2000/svg" width="17" height="14.576" viewBox="0 0 17 14.576">
    <path fill="#fff" d="M7846.029 3394.52l-.011-.024a1.4 1.4 0 0 0-.8-.771 1.5 1.5 0 0 0-.878-.016v-8.456h-10.658v7.1a3.052 3.052 0 0 0-2.181 1.352l-2.351 3.208a.328.328 0 1 0 .528.388l2.362-3.223c.006-.009.016-.023.021-.034a2.381 2.381 0 0 1 2.112-1.043c.262.032.506.066.731.1a7.329 7.329 0 0 0 1.51.119c1.5-.124 3.222-.183 3.237-.184a.674.674 0 0 1 .04 1.343l-3.511.111a.621.621 0 0 0-.6.682.851.851 0 0 0 .7.753c.186.032 4.73-.08 4.769-.1l3.135-1.353a1.068 1.068 0 0 1 .819-.126.74.74 0 0 1 .419.418v.007c-1.227.6-4.425 2.175-4.729 2.294-.3.1-2.962.244-6.61.354a1.088 1.088 0 0 0-.846.452l-1.055 1.439a.328.328 0 0 0 .528.388l1.055-1.44a.432.432 0 0 1 .337-.183 64.648 64.648 0 0 0 6.826-.4c.393-.153 4.348-2.1 4.8-2.327a.642.642 0 0 0 .301-.828zm-8.189-8.609h2.409v1.752h-2.409zm5.84 8.064l-2.835 1.222-3.9.107a2.879 2.879 0 0 1-.547-.029.194.194 0 0 1-.152-.135l3.47-.11a1.328 1.328 0 0 0-.081-2.653c-.019 0-1.757.061-3.271.186a7.034 7.034 0 0 1-1.364-.115c-.205-.029-.424-.059-.658-.087v-6.449h2.847v2.409h3.65v-2.409h2.847z" transform="translate(-7829.084 -3385.254)"/>
</svg>
