<svg xmlns="http://www.w3.org/2000/svg" width="22" height="21" viewBox="0 0 22 21">
    <defs>
        <style>
            .cls-1{fill:#111}
        </style>
    </defs>
    <g id="icon_kiosk" transform="translate(-185.197 148.584)">
        <path id="패스_33154" d="M207.919-127.584H192.03a.726.726 0 0 1-.726-.726V-139l-3.017-7.034a.727.727 0 0 1 .064-.689l1.025-1.537a.726.726 0 0 1 .6-.323h13.839a.726.726 0 0 1 .657.417l4.1 8.707a.725.725 0 0 1 .069.309v10.841a.726.726 0 0 1-.722.725zm-15.163-1.452h14.436v-9.953l-3.835-8.143h-12.988l-.591.886 2.92 6.809a.733.733 0 0 1 .058.286z" class="cls-1" transform="translate(-1.449)"/>
        <path id="패스_33155" d="M198.1-136.3a.741.741 0 0 1-.673-.431l-3.133-6.807a.741.741 0 0 1 .05-.709.739.739 0 0 1 .623-.341h10.444a.74.74 0 0 1 .672.43l3.133 6.788a.738.738 0 0 1-.049.708.74.74 0 0 1-.622.342l-10.445.02zm-1.978-6.807l2.452 5.326 8.814-.016-2.451-5.31z" class="cls-1" transform="translate(-4.7 -1.911)"/>
        <path id="패스_33156" d="M217.191-124.1h-5.222a.74.74 0 0 1-.74-.74.74.74 0 0 1 .74-.74h5.222a.74.74 0 0 1 .74.74.74.74 0 0 1-.74.74z" class="cls-1" transform="translate(-12.823 -11.237)"/>
        <path id="패스_33157" d="M190.653-123.916a.737.737 0 0 1-.514-.208l-2.611-2.524a.741.741 0 0 1-.226-.532v-8.3l-2.052-5.089a.74.74 0 0 1 .41-.963.74.74 0 0 1 .963.41l2.1 5.222a.737.737 0 0 1 .054.276v8.128l2.385 2.305a.74.74 0 0 1 .018 1.046.737.737 0 0 1-.527.229z" class="cls-1" transform="translate(0 -3.755)"/>
    </g>
</svg>
