<svg xmlns="http://www.w3.org/2000/svg" id="icon_p01" width="17.029" height="17" viewBox="0 0 17.029 17">
    <defs>
        <style>
            .cls-1{fill:#111}
        </style>
    </defs>
    <path id="패스_33126" d="M8203.422 1038.578l-1.075-2.606a.467.467 0 0 0-.335-.305l-4.468-1.171v.7l3.209.841-5.906 2-6.025-1.98 3.346-.861v-.723c-2.146.538-4.633 1.18-4.771 1.228s-.175.173-.207.289l-.753 2.606a.339.339 0 0 0 .2.425l.552.208v5.972a.344.344 0 0 0 .235.323l7.169 2.35a.493.493 0 0 0 .314 0c1.055-.363 7.04-2.446 7.04-2.446a.34.34 0 0 0 .226-.321v-5.714l1.047-.364a.344.344 0 0 0 .202-.451zm-16.244-.072l.558-2.094 6.661 2.183-.915 2.286zm7.276 8.6l-6.585-2.143v-5.472l5.682 2.143a.335.335 0 0 0 .431-.19l.473-1.175zm7.038-2.235l-6.356 2.235v-7.459l.788 1.6a.336.336 0 0 0 .411.169l5.157-1.788zm-5.1-4.188l-1.033-2.085 6.432-2.2.872 2.109z" class="cls-1" transform="translate(-8186.418 -1030.903)"/>
    <path id="패스_33127" d="M8507.7 863.973l-1.492 1.731a.327.327 0 0 1-.247.111h-.009a.315.315 0 0 1-.249-.124l-1.328-1.736a.325.325 0 1 1 .516-.395l.754 1.016v-4.4a.325.325 0 1 1 .65 0v4.4l.914-1.029a.325.325 0 1 1 .491.425z" class="cls-1" transform="translate(-8497.528 -859.849)"/>
</svg>
