<svg xmlns="http://www.w3.org/2000/svg" width="11" height="11" viewBox="0 0 11 11">
    <defs>
        <style>
            .cls-1{fill:#fff}
        </style>
    </defs>
    <g id="icon_change" transform="translate(682 -221.469)">
        <path id="패스_33075" d="M-671.3 444.113h-9.262l1.482-1.434a.372.372 0 0 0 0-.537.4.4 0 0 0-.555 0l-2.153 2.082a.372.372 0 0 0 0 .537l2.153 2.083a.4.4 0 0 0 .279.112.4.4 0 0 0 .279-.112.371.371 0 0 0 .115-.269.371.371 0 0 0-.115-.268l-1.482-1.434h9.265a.385.385 0 0 0 .389-.379.388.388 0 0 0-.395-.381z" class="cls-1" transform="translate(-0.099 -214.487)"/>
        <path id="패스_33076" d="M-681.606 224.313h9.264l-1.482 1.429a.372.372 0 0 0 0 .537.4.4 0 0 0 .279.112.4.4 0 0 0 .279-.112l2.152-2.082a.368.368 0 0 0 .113-.268.374.374 0 0 0-.116-.269l-2.153-2.08a.4.4 0 0 0-.555 0 .372.372 0 0 0 0 .537l1.482 1.434h-9.265a.388.388 0 0 0-.394.381.388.388 0 0 0 .396.381z" class="cls-1"/>
    </g>
</svg>
