<svg xmlns="http://www.w3.org/2000/svg" width="17" height="17" viewBox="0 0 17 17">
    <defs>
        <style>
            .cls-1{fill:#1e1e1e}
        </style>
    </defs>
    <g id="icon_return_01" transform="translate(17) rotate(90)">
        <path id="패스_33209" d="M192.469 134.415a8.5 8.5 0 1 1 8.5-8.5 8.51 8.51 0 0 1-8.5 8.5zm0-15.511a7.011 7.011 0 1 0 7.012 7.011 7.019 7.019 0 0 0-7.012-7.015z" class="cls-1" transform="translate(-183.969 -117.415)"/>
        <path id="패스_33210" d="M197.458 133.974a.745.745 0 0 1-.744-.745v-3.973a.364.364 0 0 0-.225-.336.358.358 0 0 0-.139-.028.362.362 0 0 0-.257.107l-.325.324a.743.743 0 0 1-1.052 0 .745.745 0 0 1 0-1.052l2.214-2.215a.748.748 0 0 1 .812-.162.752.752 0 0 1 .244.162l2.214 2.215a.744.744 0 1 1-1.053 1.052l-.324-.324a.364.364 0 0 0-.621.257v3.973a.746.746 0 0 1-.744.745z" class="cls-1" transform="translate(-188.958 -121.407)"/>
    </g>
</svg>
